<?xml version="1.0" encoding="utf-8"?>
<!-- Generator: Adobe Illustrator 22.0.1, SVG Export Plug-In . SVG Version: 6.00 Build 0)  -->
<svg version="1.1" id="Layer_1" xmlns="http://www.w3.org/2000/svg" xmlns:xlink="http://www.w3.org/1999/xlink" x="0px" y="0px"
	 viewBox="0 0 1448 444" style="enable-background:new 0 0 1448 444;" xml:space="preserve">
<style type="text/css">
	.st0{fill-rule:evenodd;clip-rule:evenodd;fill:#01689B;}
	.st1{fill:#01689B;}
</style>
<path class="st0" d="M228.9,444V236.6L436,131v207.4L228.9,444L228.9,444z M10.9,112.8L218,0l207.1,109.2L218,214.7L10.9,112.8
	L10.9,112.8z M305.2,138.3L163.5,65.5l-32.7,14.6l138.1,72.8L305.2,138.3L305.2,138.3z M207.1,444L0,338.5V131l207.1,105.5V444
	L207.1,444z"/>
<path class="st1" d="M639.7,166.1l-6.6,6.4c-2.7,2.6-5.5,2.6-8.9,0c-10.9-9.5-22.8-15.4-38.5-15.4c-17.7,0-32.8,8.6-32.8,23.5
	c0,8.8,4.2,16.5,21.9,21.1l32.3,8.8c25.7,6.8,39,19.6,39,41.6c0,22.2-19,45.5-59.8,45.5c-31,0-50.3-13.2-59.4-24.4
	c-2.7-2.6-3.1-6.6,0.2-9l8.6-6.6c3.3-2.4,5.8-1.1,8.2,1.5c8.9,9.9,22.8,19.1,43.4,19.1c23.5,0,35-12.1,35-24.4
	c0-12.3-8.2-19.4-25-23.8l-31.5-8.4c-25.5-6.4-36.5-20.5-36.5-39.8c0-26,24.1-44,56.9-44c23.9,0,42.3,8.6,53.2,19.8
	C643,161.2,641.7,164.3,639.7,166.1L639.7,166.1z M707.9,277.2c3.3,0,7.3-0.9,11.5-3.3c3.1-2,5.5-1.8,7.3,0.7l4.7,7.3
	c1.5,2.4,1.3,4.4-0.7,6.2c-6.4,5.7-15.3,8.6-26.4,8.6c-16.2,0-32.3-9.2-32.3-31.5v-56.3h-15.5c-2,0-3.8-1.8-3.8-4.2v-9.5
	c0-2.4,1.8-4.2,3.8-4.2H672v-31.5c0-2.9,1.3-4.2,4.2-4.2h13.1c2.4,0,4,1.8,4,4.2v31.5h32.1c2.4,0,4,1.8,4,4.2v9.5
	c0,2.4-1.5,4.2-4,4.2h-32.1v52.1C693.3,272.3,700.6,277.2,707.9,277.2L707.9,277.2z M841.5,248.4h-81.1c1.8,18,15.5,31,33.4,31
	c13.5,0,21.7-5.5,28.6-13.2c1.8-2,3.5-2.2,5.5-0.9l9.7,6.4c2.4,1.5,2,4,0.9,5.5c-8.9,12.1-23.7,20.5-45.2,20.5
	c-31.9,0-54.9-23.5-54.9-54.6c0-30.8,23-55.2,54.3-55.2c31,0,52.9,23.1,52.9,52.4v4C845.7,246.6,844.8,248.4,841.5,248.4
	L841.5,248.4z M793,205.5c-16.8,0-29.5,11.9-32.1,28.6h63.8C822.2,215.8,809.2,205.5,793,205.5L793,205.5z M1033.3,294.8h-12.8
	c-2.4,0-4.2-1.3-4.2-3.7v-53.9c0-16.9-8.4-29.7-26.8-29.7c-17.9,0-28.4,12.8-28.4,29.7V291c0,2.4-2,3.7-4,3.7h-13.1
	c-2,0-4.2-1.3-4.2-3.7v-53.9c0-16.9-8.6-29.7-26.6-29.7c-18.4,0-28.6,12.8-28.6,29.7V291c0,2.4-2,3.7-4,3.7h-13.3c-2.4,0-4-1.5-4-4
	v-95.7c0-2.4,1.5-4.2,4-4.2h13.3c2,0,4,1.5,4,4v11.2c6-10.3,19-18,34.8-18c17.1,0,29.5,8.6,35.4,21.1c8.9-15,23-21.1,38.8-21.1
	c29.2,0,43.9,20.2,43.9,44.4V291C1037.5,293.5,1035.7,294.8,1033.3,294.8L1033.3,294.8z M1189.3,294.8h-15.9c-2.2,0-3.8-1.3-4.7-3.7
	l-13.7-37.6H1088l-13.7,37.6c-0.7,2.4-2.2,3.7-4.4,3.7h-15.1c-2.7,0-4.2-2-3.1-5.3l54.7-144.7c0.9-2.6,3.3-4,5.3-4h20.8
	c2,0,4.2,1.3,5.3,4l54.7,144.5C1194.1,292.6,1192.1,294.8,1189.3,294.8L1189.3,294.8z M1121.5,162.8h-0.4l-26.4,72.2h53.6
	L1121.5,162.8L1121.5,162.8z M1265.2,297.6c-15.3,0-29.2-7.3-36.1-18.7V337c0,2.4-1.5,4-4,4h-13.3c-2.4,0-4-1.5-4-4V195.1
	c0-2.4,1.6-4.2,4-4.2h13.1c2.4,0,4,1.8,4,4.2v12.3c6.4-11.2,19.7-19.4,36.5-19.4c28.1,0,52,22.2,52,54.6
	C1317.5,275.4,1293.8,297.6,1265.2,297.6L1265.2,297.6z M1262.6,207.7c-19.5,0-33.7,15.6-33.7,35.2c0,19.8,14.2,35.4,33.7,35.4
	c19.5,0,33.2-15.6,33.2-35.4C1295.8,223.3,1282.1,207.7,1262.6,207.7L1262.6,207.7z M1394.4,297.6c-15.3,0-29.2-7.3-36.1-18.7V337
	c0,2.4-1.6,4-4,4H1341c-2.4,0-4-1.5-4-4V195.1c0-2.4,1.5-4.2,4-4.2h13.1c2.4,0,4,1.8,4,4.2v12.3c6.4-11.2,19.7-19.4,36.5-19.4
	c28.1,0,52.1,22.2,52.1,54.6C1446.6,275.4,1422.9,297.6,1394.4,297.6L1394.4,297.6z M1391.7,207.7c-19.5,0-33.7,15.6-33.7,35.2
	c0,19.8,14.2,35.4,33.7,35.4s33.2-15.6,33.2-35.4C1424.9,223.3,1411.2,207.7,1391.7,207.7L1391.7,207.7z"/>
</svg>
